<mxfile host="app.diagrams.net" modified="2022-02-08T02:51:17.905Z" agent="5.0 (Windows NT 10.0; Win64; x64) AppleWebKit/537.36 (KHTML, like Gecko) Chrome/97.0.4692.99 Safari/537.36" etag="mkcDMeYv5qRfdmpdoO2c" version="16.5.3" type="github">
  <diagram name="Page-1" id="74b105a0-9070-1c63-61bc-23e55f88626e">
    <mxGraphModel dx="1887" dy="1038" grid="1" gridSize="10" guides="1" tooltips="1" connect="1" arrows="1" fold="1" page="1" pageScale="1.5" pageWidth="1169" pageHeight="826" background="none" math="0" shadow="0">
      <root>
        <mxCell id="0" style=";html=1;" />
        <mxCell id="1" style=";html=1;" parent="0" />
        <mxCell id="vGhq0vdJBS9-qSBnsC20-2" value="Vector Tile Server&lt;br&gt;(OpenMapTiles MVT format)" style="rounded=0;whiteSpace=wrap;html=1;" vertex="1" parent="1">
          <mxGeometry x="600" y="600" width="120" height="60" as="geometry" />
        </mxCell>
        <mxCell id="vGhq0vdJBS9-qSBnsC20-3" value="mapLibre" style="rounded=0;whiteSpace=wrap;html=1;" vertex="1" parent="1">
          <mxGeometry x="600" y="480" width="120" height="40" as="geometry" />
        </mxCell>
        <mxCell id="vGhq0vdJBS9-qSBnsC20-4" value="User" style="shape=umlActor;verticalLabelPosition=bottom;verticalAlign=top;html=1;outlineConnect=0;" vertex="1" parent="1">
          <mxGeometry x="645" y="310" width="30" height="60" as="geometry" />
        </mxCell>
        <mxCell id="vGhq0vdJBS9-qSBnsC20-9" style="edgeStyle=orthogonalEdgeStyle;rounded=0;orthogonalLoop=1;jettySize=auto;html=1;exitX=1;exitY=0.25;exitDx=0;exitDy=0;entryX=0;entryY=0.5;entryDx=0;entryDy=0;" edge="1" parent="1" source="vGhq0vdJBS9-qSBnsC20-8" target="vGhq0vdJBS9-qSBnsC20-3">
          <mxGeometry relative="1" as="geometry" />
        </mxCell>
        <mxCell id="vGhq0vdJBS9-qSBnsC20-8" value="Style Elements:&lt;br&gt;Style JSON&lt;br&gt;Graphics&lt;br&gt;Fonts" style="rounded=0;whiteSpace=wrap;html=1;fillColor=#fff2cc;strokeColor=#d6b656;" vertex="1" parent="1">
          <mxGeometry x="400" y="480" width="120" height="80" as="geometry" />
        </mxCell>
        <mxCell id="vGhq0vdJBS9-qSBnsC20-11" value="Dynamic Shield Generator (JS)" style="rounded=0;whiteSpace=wrap;html=1;fillColor=#fff2cc;strokeColor=#d6b656;" vertex="1" parent="1">
          <mxGeometry x="800" y="480" width="120" height="40" as="geometry" />
        </mxCell>
        <mxCell id="vGhq0vdJBS9-qSBnsC20-14" style="edgeStyle=orthogonalEdgeStyle;rounded=0;orthogonalLoop=1;jettySize=auto;html=1;exitX=0;exitY=0.5;exitDx=0;exitDy=0;entryX=1;entryY=0.5;entryDx=0;entryDy=0;" edge="1" parent="1" source="vGhq0vdJBS9-qSBnsC20-12" target="vGhq0vdJBS9-qSBnsC20-11">
          <mxGeometry relative="1" as="geometry" />
        </mxCell>
        <mxCell id="vGhq0vdJBS9-qSBnsC20-12" value="Shield Definitions" style="rounded=0;whiteSpace=wrap;html=1;fillColor=#fff2cc;strokeColor=#d6b656;" vertex="1" parent="1">
          <mxGeometry x="1000" y="460" width="120" height="40" as="geometry" />
        </mxCell>
        <mxCell id="vGhq0vdJBS9-qSBnsC20-15" style="edgeStyle=orthogonalEdgeStyle;rounded=0;orthogonalLoop=1;jettySize=auto;html=1;exitX=0;exitY=0.5;exitDx=0;exitDy=0;" edge="1" parent="1" source="vGhq0vdJBS9-qSBnsC20-13">
          <mxGeometry relative="1" as="geometry">
            <mxPoint x="920" y="500" as="targetPoint" />
          </mxGeometry>
        </mxCell>
        <mxCell id="vGhq0vdJBS9-qSBnsC20-13" value="Shield Blanks" style="rounded=0;whiteSpace=wrap;html=1;fillColor=#fff2cc;strokeColor=#d6b656;" vertex="1" parent="1">
          <mxGeometry x="1000" y="500" width="120" height="40" as="geometry" />
        </mxCell>
        <mxCell id="vGhq0vdJBS9-qSBnsC20-17" value="" style="endArrow=classic;startArrow=classic;html=1;rounded=0;entryX=0;entryY=0.5;entryDx=0;entryDy=0;exitX=1;exitY=0.5;exitDx=0;exitDy=0;" edge="1" parent="1" source="vGhq0vdJBS9-qSBnsC20-3" target="vGhq0vdJBS9-qSBnsC20-11">
          <mxGeometry width="50" height="50" relative="1" as="geometry">
            <mxPoint x="660" y="580" as="sourcePoint" />
            <mxPoint x="710" y="530" as="targetPoint" />
          </mxGeometry>
        </mxCell>
        <mxCell id="vGhq0vdJBS9-qSBnsC20-18" value="" style="endArrow=classic;startArrow=classic;html=1;rounded=0;exitX=0.5;exitY=0;exitDx=0;exitDy=0;entryX=0.5;entryY=1;entryDx=0;entryDy=0;" edge="1" parent="1" source="vGhq0vdJBS9-qSBnsC20-2" target="vGhq0vdJBS9-qSBnsC20-3">
          <mxGeometry width="50" height="50" relative="1" as="geometry">
            <mxPoint x="660" y="580" as="sourcePoint" />
            <mxPoint x="710" y="530" as="targetPoint" />
          </mxGeometry>
        </mxCell>
        <mxCell id="vGhq0vdJBS9-qSBnsC20-20" value="" style="endArrow=classic;startArrow=classic;html=1;rounded=0;" edge="1" parent="1">
          <mxGeometry width="50" height="50" relative="1" as="geometry">
            <mxPoint x="660" y="480" as="sourcePoint" />
            <mxPoint x="660" y="400" as="targetPoint" />
          </mxGeometry>
        </mxCell>
        <mxCell id="vGhq0vdJBS9-qSBnsC20-21" value="Map drawn in user&#39;s &lt;br&gt;web browser" style="text;html=1;resizable=0;autosize=1;align=left;verticalAlign=middle;points=[];fillColor=none;strokeColor=none;rounded=0;" vertex="1" parent="1">
          <mxGeometry x="675" y="400" width="120" height="30" as="geometry" />
        </mxCell>
        <mxCell id="vGhq0vdJBS9-qSBnsC20-23" value="Pan, tilt, &lt;br&gt;rotate, zoom" style="text;html=1;resizable=0;autosize=1;align=right;verticalAlign=middle;points=[];fillColor=none;strokeColor=none;rounded=0;" vertex="1" parent="1">
          <mxGeometry x="565" y="440" width="80" height="30" as="geometry" />
        </mxCell>
        <mxCell id="vGhq0vdJBS9-qSBnsC20-24" value="Vector tiles&lt;br&gt;.pbf format" style="text;html=1;resizable=0;autosize=1;align=left;verticalAlign=middle;points=[];fillColor=none;strokeColor=none;rounded=0;" vertex="1" parent="1">
          <mxGeometry x="670" y="540" width="70" height="30" as="geometry" />
        </mxCell>
        <mxCell id="vGhq0vdJBS9-qSBnsC20-25" value="spritezero" style="text;html=1;resizable=0;autosize=1;align=left;verticalAlign=middle;points=[];fillColor=none;strokeColor=none;rounded=0;" vertex="1" parent="1">
          <mxGeometry x="1066" y="560" width="70" height="20" as="geometry" />
        </mxCell>
        <mxCell id="vGhq0vdJBS9-qSBnsC20-27" value="" style="edgeStyle=orthogonalEdgeStyle;rounded=0;orthogonalLoop=1;jettySize=auto;html=1;" edge="1" parent="1" source="vGhq0vdJBS9-qSBnsC20-26" target="vGhq0vdJBS9-qSBnsC20-13">
          <mxGeometry relative="1" as="geometry" />
        </mxCell>
        <mxCell id="vGhq0vdJBS9-qSBnsC20-26" value="Shield Graphics&lt;br&gt;SVG format" style="rounded=0;whiteSpace=wrap;html=1;fillColor=#fff2cc;strokeColor=#d6b656;" vertex="1" parent="1">
          <mxGeometry x="1000" y="600" width="120" height="40" as="geometry" />
        </mxCell>
        <mxCell id="vGhq0vdJBS9-qSBnsC20-28" value="styleimagemissing()&lt;br&gt;callback" style="text;html=1;resizable=0;autosize=1;align=left;verticalAlign=middle;points=[];fillColor=none;strokeColor=none;rounded=0;" vertex="1" parent="1">
          <mxGeometry x="750" y="460" width="120" height="30" as="geometry" />
        </mxCell>
      </root>
    </mxGraphModel>
  </diagram>
</mxfile>
